<svg xmlns="http://www.w3.org/2000/svg" xmlns:xlink="http://www.w3.org/1999/xlink" width="21" height="16" viewBox="0 0 21 16"><defs><path id="w8qda" d="M850.35 31.2a.76.76 0 0 1-.75-.74c0-.4.35-.75.75-.75s.74.35.74.75-.34.74-.74.74zm-8.3 0a.77.77 0 0 1-.75-.74c0-.4.35-.75.75-.75s.76.35.76.75-.36.74-.76.74zm11.58-11.87l-1.34 6.5H840.1l-1.39-6.5zm-1.05 7.25c.05 0 .1 0 .15-.05h.05c.05 0 .05-.05.05-.05s0-.05.05-.05l.05-.04v-.1l1.5-7.26v-.1-.05-.05s0-.05-.06-.05c0 0 0-.05-.05-.05l-.1-.1s-.05 0-.05-.05h-.05H838.57l-.5-2.28v-.05c0-.05 0-.05-.05-.05 0 0 0-.05-.04-.05l-.1-.1s-.05 0-.05-.05h-.1H834.4a.4.4 0 0 0-.4.4c0 .25.15.4.4.4h2.98l1.94 9.14a1.94 1.94 0 0 0 .45 3.83h.94c-.15.2-.2.44-.2.74 0 .84.65 1.49 1.49 1.49s1.5-.65 1.5-1.5c0-.24-.1-.54-.2-.74h5.7c-.14.2-.2.45-.2.75 0 .84.65 1.49 1.5 1.49.84 0 1.49-.65 1.49-1.5 0-.24-.1-.54-.2-.74h.94c.2 0 .4-.15.4-.4 0-.24-.15-.4-.4-.4h-12.72a1.2 1.2 0 0 1-1.19-1.18c0-.65.55-1.2 1.2-1.2z"/><radialGradient id="w8qdb" cx="850.33" cy="28.25" r="14.61" gradientUnits="userSpaceOnUse"><stop offset="0" stop-color="#7e00e8"/><stop offset=".4" stop-color="#ff1876"/><stop offset="1" stop-color="#bb0cb2"/></radialGradient></defs><g><g transform="translate(-834 -16)"><use fill="url(#w8qdb)" xlink:href="#w8qda"/></g></g></svg>