<svg xmlns="http://www.w3.org/2000/svg" xmlns:xlink="http://www.w3.org/1999/xlink" width="26" height="26" viewBox="0 0 26 26"><defs><path id="40d7a" d="M164.1 25.6c-.07-.07-.14-.14-.07-.4v-.4l.13-.14 5.13-2.94c.2-.13.54-.07.67.2.13.2.07.54-.2.67l-4.4 2.54 4.4 2.53c.27.14.33.4.2.67-.13.2-.27.27-.47.27-.13 0-.2 0-.26-.07zm25.26-.48c0 .07 0 .07.13.27v.13l-.2.2-5.13 2.93c-.07.07-.2.07-.27.07-.2 0-.4-.13-.46-.27-.14-.2-.07-.53.2-.66l4.4-2.54-4.4-2.53c-.27-.13-.34-.4-.2-.67.13-.26.4-.33.66-.2l5.14 2.94.06.06.07.07v.2zm-3.26-13c.27.2.27.47.14.67l-18.41 24.4c-.07.13-.27.2-.4.2a.51.51 0 0 1-.34-.14c-.2-.13-.2-.46-.06-.66l18.4-24.4c.14-.2.47-.27.67-.07z"/><linearGradient id="40d7b" x1="189.49" x2="164" y1="24.7" y2="24.7" gradientUnits="userSpaceOnUse"><stop offset="0" stop-color="#7e00e8"/><stop offset=".54" stop-color="#ff1876"/><stop offset="1" stop-color="#bb0cb2"/></linearGradient></defs><g><g transform="translate(-164 -12)"><use fill="url(#40d7b)" xlink:href="#40d7a"/></g></g></svg>